<?xml version="1.0" encoding="UTF-8"?>
<svg id="Layer_1" data-name="Layer 1" xmlns="http://www.w3.org/2000/svg" viewBox="0 0 97.98 90.68">
  <defs>
    <style>
      .cls-1 {
        fill: none;
      }

      .cls-1, .cls-2, .cls-3 {
        stroke-width: 0px;
      }

      .cls-2 {
        fill: #fff;
      }

      .cls-3 {
        fill: #994722;
      }
    </style>
  </defs>
  <path class="cls-1" d="m21.61,5.01h-3.36v37.09c2.09,2.47,4.86,3.96,7.63,3.96,6.96,0,10.09-7.7,10.09-16.45,0-9.42-3.89-24.6-14.36-24.6Z"/>
  <path class="cls-3" d="m51.45,25.42C51.45,10.09,41.35,0,26.02,0H2.39C.97,0,0,.82,0,2.24c0,1.2.75,1.79,1.5,2.39.75.6,1.5,1.2,1.5,2.54v36.49c0,1.35-.75,1.94-1.5,2.54-.75.6-1.5,1.12-1.5,2.39,0,1.42.97,2.24,2.39,2.24h23.63c15.33,0,25.42-10.09,25.42-25.43Zm-25.58,20.64c-2.77,0-5.53-1.5-7.63-3.96V5.01h3.36c10.47,0,14.36,15.18,14.36,24.6,0,8.75-3.14,16.45-10.09,16.45Z"/>
  <path class="cls-2" d="m96.48,86.2c-.75-.6-1.5-1.2-1.5-2.47v-36.94c0-1.35.75-1.87,1.5-2.47.75-.6,1.5-1.2,1.5-2.39,0-1.27-.97-2.09-2.32-2.09h-13.09c-1.57,0-2.54.67-3.07,2.17l-12.11,33.5-10.99-33.43c-.52-1.57-1.57-2.24-3.14-2.24h-4.55c-1.63,3.42-4.28,5.99-7.94,8.51v34.79c0,1.64-.75,2.39-1.64,3.14-.67.6-1.35,1.2-1.35,2.32,0,1.27.97,2.09,2.32,2.09h7.93c1.42,0,2.32-.82,2.32-2.09,0-1.12-.82-1.72-1.8-2.39-1.57-.97-3.14-2.02-3.14-5.01v-32.38l14.21,39.71c.45,1.35,1.42,2.17,2.92,2.17h1.64c1.42,0,2.47-.75,2.99-2.17l14.51-39.63v34.85c0,1.27-.75,1.87-1.5,2.47-.75.6-1.5,1.12-1.5,2.39s.9,2.09,2.32,2.09h14.66c1.35,0,2.32-.82,2.32-2.09s-.75-1.79-1.5-2.39Z"/>
</svg>